<svg width="24" height="24" viewBox="0 0 24 24" fill="none" xmlns="http://www.w3.org/2000/svg">
<rect width="24" height="24" rx="12" fill="#B8D7FF"/>
<path d="M15 11H12.5" stroke="#3852B4" stroke-width="0.75" stroke-linecap="round"/>
<path d="M11 7.5H14.25C14.482 7.5 14.5985 7.5 14.696 7.513C15.0233 7.55616 15.3271 7.70606 15.5605 7.93946C15.7939 8.17287 15.9438 8.47675 15.987 8.804C16 8.9015 16 9.018 16 9.25" stroke="#3852B4" stroke-width="0.75"/>
<path d="M7 9.475C7 9.0335 7 8.813 7.035 8.629C7.10961 8.23392 7.30157 7.8705 7.58583 7.58615C7.87008 7.30181 8.23344 7.10974 8.6285 7.035C8.813 7 9.034 7 9.475 7C9.668 7 9.765 7 9.858 7.0085C10.2585 7.04612 10.6384 7.20364 10.948 7.4605C11.02 7.52 11.088 7.588 11.225 7.725L11.5 8C11.908 8.408 12.112 8.612 12.356 8.7475C12.4901 8.82225 12.6324 8.8813 12.78 8.9235C13.049 9 13.3375 9 13.914 9H14.101C15.417 9 16.0755 9 16.503 9.385C16.5427 9.42 16.58 9.45733 16.615 9.497C17 9.9245 17 10.583 17 11.899V13C17 14.8855 17 15.8285 16.414 16.414C15.828 16.9995 14.8855 17 13 17H11C9.1145 17 8.1715 17 7.586 16.414C7.0005 15.828 7 14.8855 7 13V9.475Z" stroke="#3852B4" stroke-width="0.75"/>
</svg>
