<svg width="62" height="62" viewBox="0 0 62 62" fill="none" xmlns="http://www.w3.org/2000/svg">
<rect width="62" height="62" rx="10" fill="#EBF1FF"/>
<g clip-path="url(#clip0_12_102)">
<path fill-rule="evenodd" clip-rule="evenodd" d="M24.5643 16.4013C26.7024 15.4748 29.0082 14.9979 31.3385 15C33.6687 15.0021 35.9737 15.4833 38.1101 16.4136C40.2466 17.344 42.169 18.7036 43.7579 20.4081C45.3469 22.1126 46.5684 24.1256 47.3467 26.322C48.0024 28.1629 47.711 30.2709 46.5817 31.864C46.0154 32.654 45.2697 33.2984 44.4059 33.7443C43.5421 34.1901 42.5849 34.4246 41.6129 34.4286H37.0714C36.1999 34.4255 35.3562 34.7349 34.6933 35.3008C34.0305 35.8666 33.5925 36.6514 33.4588 37.5126C33.3251 38.3738 33.5046 39.2544 33.9647 39.9946C34.4248 40.7347 35.135 41.2854 35.9664 41.5467C37.3021 42.0446 38.2371 43.2516 38.327 44.6699C38.4146 45.4761 38.2173 46.2876 37.7693 46.9636C37.3213 47.6396 36.6508 48.1376 35.8741 48.371C34.3907 48.7926 32.8555 49.0043 31.3133 49C28.1983 48.9981 25.1437 48.1404 22.483 46.5204C19.8327 44.8879 17.6767 42.5648 16.2464 39.8C14.8162 37.0353 14.1655 33.9334 14.3643 30.827C14.595 27.7231 15.6663 24.7406 17.4632 22.1992C19.2601 19.6579 21.7149 17.6536 24.5643 16.4013ZM24.9286 32C25.407 32 25.8807 31.9058 26.3226 31.7227C26.7646 31.5396 27.1662 31.2713 27.5045 30.933C27.8427 30.5948 28.1111 30.1932 28.2941 29.7512C28.4772 29.3092 28.5714 28.8355 28.5714 28.3571C28.5714 27.8787 28.4772 27.405 28.2941 26.9631C28.1111 26.5211 27.8427 26.1195 27.5045 25.7812C27.1662 25.443 26.7646 25.1746 26.3226 24.9916C25.8807 24.8085 25.407 24.7143 24.9286 24.7143C23.9624 24.7143 23.0358 25.0981 22.3527 25.7812C21.6695 26.4644 21.2857 27.391 21.2857 28.3571C21.2857 29.3233 21.6695 30.2499 22.3527 30.933C23.0358 31.6162 23.9624 32 24.9286 32ZM39.5 24.7143C39.5 25.6804 39.1162 26.607 38.433 27.2902C37.7499 27.9733 36.8233 28.3571 35.8571 28.3571C34.891 28.3571 33.9644 27.9733 33.2812 27.2902C32.5981 26.607 32.2143 25.6804 32.2143 24.7143C32.2143 23.7481 32.5981 22.8216 33.2812 22.1384C33.9644 21.4552 34.891 21.0714 35.8571 21.0714C36.8233 21.0714 37.7499 21.4552 38.433 22.1384C39.1162 22.8216 39.5 23.7481 39.5 24.7143ZM24.9286 40.5C25.5727 40.5 26.1904 40.2441 26.6458 39.7887C27.1013 39.3332 27.3571 38.7155 27.3571 38.0714C27.3571 37.4273 27.1013 36.8096 26.6458 36.3542C26.1904 35.8987 25.5727 35.6429 24.9286 35.6429C24.2845 35.6429 23.6668 35.8987 23.2113 36.3542C22.7559 36.8096 22.5 37.4273 22.5 38.0714C22.5 38.7155 22.7559 39.3332 23.2113 39.7887C23.6668 40.2441 24.2845 40.5 24.9286 40.5Z" fill="#3852B4"/>
</g>
<defs>
<clipPath id="clip0_12_102">
<rect width="34" height="34" fill="white" transform="translate(14 15)"/>
</clipPath>
</defs>
</svg>
