<svg width="62" height="62" viewBox="0 0 62 62" fill="none" xmlns="http://www.w3.org/2000/svg">
<rect width="62" height="62" rx="10" fill="#EBF1FF"/>
<path d="M19.763 47.5522C22.08 47.7406 25.7576 47.9375 31 47.9375C36.2424 47.9375 39.9201 47.7406 42.237 47.5522C44.566 47.3631 46.3631 45.566 46.5522 43.237C46.7406 40.9201 46.9375 37.2424 46.9375 32C46.9375 29.3721 46.8879 27.138 46.815 25.2709H15.1851C15.1005 27.5129 15.0597 29.7564 15.0625 32C15.0625 37.2424 15.2594 40.9201 15.4478 43.237C15.637 45.566 17.434 47.3631 19.763 47.5522Z" fill="#3852B4"/>
<path fill-rule="evenodd" clip-rule="evenodd" d="M15.2856 23.1458C15.3376 22.233 15.3917 21.4388 15.4479 20.763C15.637 18.434 17.434 16.637 19.763 16.4478C22.08 16.2594 25.7576 16.0625 31 16.0625C36.2424 16.0625 39.9201 16.2594 42.237 16.4478C44.566 16.637 46.3631 18.434 46.5522 20.763C46.6079 21.4383 46.662 22.2326 46.7144 23.1458H15.2856ZM19.3125 19.9583C19.3125 19.6765 19.4245 19.4063 19.6237 19.207C19.823 19.0078 20.0932 18.8958 20.375 18.8958H21.7917C22.0735 18.8958 22.3437 19.0078 22.543 19.207C22.7422 19.4063 22.8542 19.6765 22.8542 19.9583C22.8542 20.2401 22.7422 20.5104 22.543 20.7096C22.3437 20.9089 22.0735 21.0208 21.7917 21.0208H20.375C20.0932 21.0208 19.823 20.9089 19.6237 20.7096C19.4245 20.5104 19.3125 20.2401 19.3125 19.9583ZM26.0417 18.8958C25.7599 18.8958 25.4896 19.0078 25.2904 19.207C25.0911 19.4063 24.9792 19.6765 24.9792 19.9583C24.9792 20.2401 25.0911 20.5104 25.2904 20.7096C25.4896 20.9089 25.7599 21.0208 26.0417 21.0208H27.4584C27.7401 21.0208 28.0104 20.9089 28.2097 20.7096C28.4089 20.5104 28.5209 20.2401 28.5209 19.9583C28.5209 19.6765 28.4089 19.4063 28.2097 19.207C28.0104 19.0078 27.7401 18.8958 27.4584 18.8958H26.0417Z" fill="#3852B4"/>
</svg>
