<svg width="62" height="62" viewBox="0 0 62 62" fill="none" xmlns="http://www.w3.org/2000/svg">
<rect width="62" height="62" rx="10" fill="#EBF1FF"/>
<path d="M20.375 19.25C20.375 18.1228 20.8228 17.0418 21.6198 16.2448C22.4168 15.4478 23.4978 15 24.625 15H37.375C38.5022 15 39.5832 15.4478 40.3802 16.2448C41.1772 17.0418 41.625 18.1228 41.625 19.25V44.75C41.625 45.8772 41.1772 46.9582 40.3802 47.7552C39.5832 48.5522 38.5022 49 37.375 49H24.625C23.4978 49 22.4168 48.5522 21.6198 47.7552C20.8228 46.9582 20.375 45.8772 20.375 44.75V19.25ZM33.125 42.625C33.125 42.0614 32.9011 41.5209 32.5026 41.1224C32.1041 40.7239 31.5636 40.5 31 40.5C30.4364 40.5 29.8959 40.7239 29.4974 41.1224C29.0989 41.5209 28.875 42.0614 28.875 42.625C28.875 43.1886 29.0989 43.7291 29.4974 44.1276C29.8959 44.5261 30.4364 44.75 31 44.75C31.5636 44.75 32.1041 44.5261 32.5026 44.1276C32.9011 43.7291 33.125 43.1886 33.125 42.625Z" fill="#3852B4"/>
</svg>
