<svg width="23" height="18" viewBox="0 0 23 18" fill="none" xmlns="http://www.w3.org/2000/svg">
<path d="M10.5 9.75C11.2956 9.75 12.0587 10.0661 12.6213 10.6287C13.1839 11.1913 13.5 11.9544 13.5 12.75C13.5 14.1975 12.612 15.345 11.3835 16.095C10.155 16.842 8.5125 17.25 6.75 17.25C4.9875 17.25 3.345 16.842 2.1165 16.095C0.8865 15.345 0 14.1975 0 12.75C0 11.9544 0.316071 11.1913 0.87868 10.6287C1.44129 10.0661 2.20435 9.75 3 9.75H10.5ZM20.4795 9.762C21.0336 9.81881 21.5468 10.0791 21.9201 10.4925C22.2933 10.9059 22.4999 11.443 22.5 12C22.5 13.1565 21.795 14.1135 20.847 14.745C19.8945 15.381 18.6195 15.75 17.25 15.75C16.2 15.75 15.21 15.531 14.3745 15.1455C14.7615 14.451 14.9985 13.6515 14.9985 12.75C14.9985 11.6115 14.5725 10.575 13.875 9.7815C13.997 9.7615 14.122 9.751 14.25 9.75H20.25L20.4795 9.762ZM6.75 0C7.84402 0 8.89323 0.434597 9.66682 1.20818C10.4404 1.98177 10.875 3.03098 10.875 4.125C10.875 5.21902 10.4404 6.26823 9.66682 7.04182C8.89323 7.8154 7.84402 8.25 6.75 8.25C5.65598 8.25 4.60677 7.8154 3.83318 7.04182C3.0596 6.26823 2.625 5.21902 2.625 4.125C2.625 3.03098 3.0596 1.98177 3.83318 1.20818C4.60677 0.434597 5.65598 0 6.75 0ZM17.253 1.4955C17.7025 1.48603 18.1494 1.56638 18.5674 1.73184C18.9854 1.89731 19.3662 2.14456 19.6875 2.45911C20.0087 2.77365 20.264 3.14916 20.4382 3.56362C20.6124 3.97808 20.7022 4.42315 20.7022 4.87275C20.7022 5.32235 20.6124 5.76742 20.4382 6.18188C20.264 6.59634 20.0087 6.97185 19.6875 7.28639C19.3662 7.60094 18.9854 7.84819 18.5674 8.01366C18.1494 8.17912 17.7025 8.25947 17.253 8.25C16.3696 8.23138 15.5287 7.86739 14.9105 7.23606C14.2924 6.60473 13.9462 5.75632 13.9462 4.87275C13.9462 3.98918 14.2924 3.14077 14.9105 2.50944C15.5287 1.87811 16.3696 1.51412 17.253 1.4955Z" fill="#3852B4"/>
</svg>
