<svg width="62" height="62" viewBox="0 0 62 62" fill="none" xmlns="http://www.w3.org/2000/svg">
<rect width="62" height="62" rx="10" fill="#EBF1FF"/>
<g clip-path="url(#clip0_12_98)">
<path d="M44.2812 19.4625C43.9159 19.2262 43.4981 19.0832 43.0646 19.0461C42.6311 19.0091 42.1951 19.0791 41.795 19.25L28.6838 24.4138C28.3737 24.5412 28.0415 24.6061 27.7062 24.605H19.3125C18.608 24.605 17.9324 24.8849 17.4342 25.383C16.9361 25.8812 16.6562 26.5568 16.6562 27.2613V27.4738H14V33.8488H16.6562V34.125C16.6729 34.8184 16.9601 35.4778 17.4564 35.9622C17.9528 36.4466 18.6189 36.7177 19.3125 36.7175L22.5 43.475C22.7158 43.9301 23.0556 44.315 23.4804 44.5857C23.9051 44.8563 24.3976 45.0016 24.9012 45.005H26.24C26.9408 44.9994 27.611 44.7171 28.1045 44.2195C28.5981 43.722 28.875 43.0496 28.875 42.3488V36.9725L41.795 42.1363C42.1132 42.2613 42.4519 42.3261 42.7938 42.3275C43.3242 42.3178 43.8406 42.1555 44.2812 41.86C44.6308 41.624 44.9191 41.3082 45.1223 40.9387C45.3255 40.5692 45.4379 40.1566 45.45 39.735V21.6513C45.4481 21.2189 45.3406 20.7935 45.1369 20.412C44.9332 20.0306 44.6395 19.7047 44.2812 19.4625ZM26.2188 27.2613V34.125H19.3125V27.2613H26.2188ZM26.2188 42.3488H24.88L22.2663 36.7175H26.2188V42.3488ZM29.6613 34.4438C29.4089 34.3149 29.1458 34.2083 28.875 34.125V27.1125C29.1432 27.0568 29.4062 26.9786 29.6613 26.8788L42.7938 21.6513V39.6713L29.6613 34.4438ZM45.5138 28.005V33.3175C46.2182 33.3175 46.8939 33.0377 47.392 32.5395C47.8901 32.0414 48.17 31.3658 48.17 30.6613C48.17 29.9568 47.8901 29.2812 47.392 28.783C46.8939 28.2849 46.2182 28.005 45.5138 28.005Z" fill="#3852B4"/>
</g>
<defs>
<clipPath id="clip0_12_98">
<rect width="34" height="34" fill="white" transform="translate(14 15)"/>
</clipPath>
</defs>
</svg>
