<svg width="24" height="24" viewBox="0 0 24 24" fill="none" xmlns="http://www.w3.org/2000/svg">
<mask id="mask0_65_59" style="mask-type:luminance" maskUnits="userSpaceOnUse" x="0" y="0" width="24" height="24">
<path d="M0 0H24V24H0V0Z" fill="white"/>
<path d="M19.2738 16.6791C19.1944 16.9084 19.0277 17.0972 18.8101 17.2046C18.5924 17.3119 18.3412 17.3293 18.1109 17.2528C17.8805 17.1764 17.6896 17.0123 17.5793 16.796C17.4691 16.5798 17.4484 16.3289 17.5218 16.0975C17.8417 15.1225 18.0031 14.1025 18 13.0763C18 8.96308 15.456 6.23446 12 6.23446C8.544 6.23446 6 8.96308 6 13.0763C6 14.1286 6.16431 15.1505 6.47815 16.0975C6.55157 16.3289 6.53092 16.5798 6.42067 16.796C6.31043 17.0123 6.11946 17.1764 5.88911 17.2528C5.65876 17.3293 5.40757 17.3119 5.18991 17.2046C4.97225 17.0972 4.80564 16.9084 4.72615 16.6791C4.34401 15.5165 4.15079 14.3001 4.15384 13.0763C4.15384 7.97169 7.49446 4.38831 12 4.38831C16.5055 4.38831 19.8462 7.97169 19.8462 13.0763C19.8462 14.3262 19.6505 15.5437 19.2738 16.6791Z" fill="black"/>
<path d="M8.2865 18.4929C7.55494 18.4788 6.85868 18.1757 6.34983 17.65C5.84099 17.1242 5.56092 16.4183 5.57081 15.6867V15.6664C5.58102 14.9375 5.88017 14.2424 6.40252 13.7339C6.92488 13.2254 7.62772 12.945 8.35666 12.9544H8.37235C8.6162 12.9593 8.84823 13.0604 9.01773 13.2358C9.18723 13.4112 9.28043 13.6465 9.27696 13.8904L9.22712 17.5827C9.22544 17.7043 9.19974 17.8244 9.1515 17.9361C9.10325 18.0477 9.03342 18.1487 8.94601 18.2333C8.8586 18.3179 8.75534 18.3844 8.64216 18.4289C8.52898 18.4735 8.40811 18.4952 8.2865 18.4929ZM15.7745 12.923C16.5061 12.9371 17.2023 13.2401 17.7112 13.7659C18.22 14.2917 18.5001 14.9975 18.4902 15.7292V15.7495C18.48 16.4784 18.1808 17.1735 17.6585 17.682C17.1361 18.1905 16.4333 18.4708 15.7043 18.4615H15.6896C15.4456 18.4569 15.2133 18.3558 15.0436 18.1804C14.8739 18.005 14.7806 17.7695 14.784 17.5255L14.8339 13.8332C14.8356 13.7116 14.8613 13.5915 14.9095 13.4798C14.9578 13.3682 15.0276 13.2671 15.115 13.1826C15.2024 13.098 15.3057 13.0315 15.4188 12.987C15.532 12.9424 15.6529 12.9207 15.7745 12.923Z" fill="black"/>
</mask>
<g mask="url(#mask0_65_59)">
<path d="M12 24C18.6274 24 24 18.6274 24 12C24 5.37258 18.6274 0 12 0C5.37258 0 0 5.37258 0 12C0 18.6274 5.37258 24 12 24Z" fill="#3852B4"/>
</g>
</svg>
